<svg xmlns="http://www.w3.org/2000/svg" viewBox="0 0 24 24" fill="currentColor">
  <path d="M19.14 12.94c.04-.31.06-.64.06-.94s-.02-.63-.06-.94l2.03-1.58c.18-.14.23-.41.12-.61l-1.92-3.32a.5.5 0 00-.55-.19l-2.39.96a7.994 7.994 0 00-1.62-.94L14.96 2.5a.5.5 0 00-.48-.5h-3.96a.5.5 0 00-.48.5l-.52 2.75a7.99 7.99 0 00-1.62.94l-2.39-.96a.5.5 0 00-.55.19L3.04 8.75a.5.5 0 00.12.61l2.03 1.58c-.04.31-.06.64-.06.94s.02.63.06.94l-2.03 1.58a.5.5 0 00-.12.61l1.92 3.32c.11.19.35.26.55.19l2.39-.96c.5.38 1.03.7 1.62.94l.52 2.75c.05.28.26.5.48.5h3.96c.27 0 .48-.22.48-.5l.52-2.75c.59-.24 1.12-.56 1.62-.94l2.39.96c.2.07.44 0 .55-.19l1.92-3.32a.5.5 0 00-.12-.61l-2.03-1.58zM12 15.5A3.5 3.5 0 1115.5 12 3.5 3.5 0 0112 15.5z"/>
</svg>
